<svg xmlns="http://www.w3.org/2000/svg" viewBox="0 0 256 240" width="256" height="240" role="img" aria-labelledby="title"><title id="title">4-4 · 区域 1：基础地形预览，粉色圆点表示待实现机制</title><rect width="256" height="240" fill="#16161c"/><path d="M0 0v240" stroke="#777" stroke-opacity=".22"/><text x="4" y="14" fill="#9a9394" font-size="10">0</text><rect x="112" y="204" width="32" height="36" fill="#9b3f36" opacity=".75"/><rect x="176" y="204" width="32" height="36" fill="#9b3f36" opacity=".75"/><rect x="0" y="112" width="48" height="128" fill="#e8e0cb" stroke="#393840"/><rect x="48" y="128" width="16" height="112" fill="#e8e0cb" stroke="#393840"/><rect x="64" y="144" width="16" height="96" fill="#e8e0cb" stroke="#393840"/><rect x="80" y="160" width="16" height="80" fill="#e8e0cb" stroke="#393840"/><rect x="0" y="32" width="96" height="48" fill="#e8e0cb" stroke="#393840"/><rect x="96" y="160" width="16" height="80" fill="#e8e0cb" stroke="#393840"/><rect x="96" y="32" width="160" height="16" fill="#e8e0cb" stroke="#393840"/><rect x="144" y="160" width="32" height="80" fill="#e8e0cb" stroke="#393840"/><rect x="208" y="160" width="48" height="80" fill="#e8e0cb" stroke="#393840"/><rect x="24" y="88" width="12" height="24" fill="#64ccba" stroke="none"/><g><title>lava-volume</title><circle cx="118" cy="208" r="5" fill="none" stroke="#ef8290" stroke-width="2"/></g><g><title>lava-volume</title><circle cx="182" cy="208" r="5" fill="none" stroke="#ef8290" stroke-width="2"/></g><g><title>conditional-section</title><circle cx="262" cy="208" r="5" fill="none" stroke="#ef8290" stroke-width="2"/></g><g><title>conditional-section-runtime</title><circle cx="6" cy="32" r="5" fill="none" stroke="#ef8290" stroke-width="2"/></g></svg>
