<svg xmlns="http://www.w3.org/2000/svg" viewBox="0 0 2560 240" width="2560" height="240" role="img" aria-labelledby="title"><title id="title">2-4 · 区域 1：基础地形预览，粉色圆点表示待实现机制</title><rect width="2560" height="240" fill="#16161c"/><path d="M0 0v240" stroke="#777" stroke-opacity=".22"/><text x="4" y="14" fill="#9a9394" font-size="10">0</text><path d="M256 0v240" stroke="#777" stroke-opacity=".22"/><text x="260" y="14" fill="#9a9394" font-size="10">16</text><path d="M512 0v240" stroke="#777" stroke-opacity=".22"/><text x="516" y="14" fill="#9a9394" font-size="10">32</text><path d="M768 0v240" stroke="#777" stroke-opacity=".22"/><text x="772" y="14" fill="#9a9394" font-size="10">48</text><path d="M1024 0v240" stroke="#777" stroke-opacity=".22"/><text x="1028" y="14" fill="#9a9394" font-size="10">64</text><path d="M1280 0v240" stroke="#777" stroke-opacity=".22"/><text x="1284" y="14" fill="#9a9394" font-size="10">80</text><path d="M1536 0v240" stroke="#777" stroke-opacity=".22"/><text x="1540" y="14" fill="#9a9394" font-size="10">96</text><path d="M1792 0v240" stroke="#777" stroke-opacity=".22"/><text x="1796" y="14" fill="#9a9394" font-size="10">112</text><path d="M2048 0v240" stroke="#777" stroke-opacity=".22"/><text x="2052" y="14" fill="#9a9394" font-size="10">128</text><path d="M2304 0v240" stroke="#777" stroke-opacity=".22"/><text x="2308" y="14" fill="#9a9394" font-size="10">144</text><rect x="256" y="204" width="256" height="36" fill="#9b3f36" opacity=".75"/><rect x="1744" y="204" width="32" height="36" fill="#9b3f36" opacity=".75"/><rect x="1808" y="204" width="64" height="36" fill="#9b3f36" opacity=".75"/><rect x="0" y="112" width="48" height="128" fill="#e8e0cb" stroke="#393840"/><rect x="48" y="128" width="16" height="112" fill="#e8e0cb" stroke="#393840"/><rect x="64" y="144" width="16" height="96" fill="#e8e0cb" stroke="#393840"/><rect x="80" y="160" width="176" height="80" fill="#e8e0cb" stroke="#393840"/><rect x="0" y="32" width="256" height="48" fill="#e8e0cb" stroke="#393840"/><rect x="288" y="144" width="32" height="16" fill="#e8e0cb" stroke="#393840"/><rect x="352" y="112" width="16" height="16" fill="#e8e0cb" stroke="#393840"/><rect x="368" y="112" width="16" height="16" fill="#e8e0cb" stroke="#393840"/><rect x="368" y="48" width="16" height="16" fill="#e8e0cb" stroke="#393840"/><rect x="384" y="112" width="16" height="16" fill="#e8e0cb" stroke="#393840"/><rect x="432" y="144" width="32" height="16" fill="#e8e0cb" stroke="#393840"/><rect x="512" y="224" width="832" height="16" fill="#e8e0cb" stroke="#393840"/><rect x="512" y="160" width="32" height="64" fill="#e8e0cb" stroke="#393840"/><rect x="544" y="32" width="784" height="48" fill="#e8e0cb" stroke="#393840"/><rect x="544" y="80" width="336" height="16" fill="#e8e0cb" stroke="#393840"/><rect x="544" y="208" width="144" height="16" fill="#e8e0cb" stroke="#393840"/><rect x="592" y="144" width="192" height="16" fill="#e8e0cb" stroke="#393840"/><rect x="688" y="208" width="16" height="16" fill="#e8e0cb" stroke="#393840"/><rect x="704" y="208" width="176" height="16" fill="#e8e0cb" stroke="#393840"/><rect x="784" y="144" width="16" height="16" fill="#e8e0cb" stroke="#393840"/><rect x="800" y="144" width="176" height="16" fill="#e8e0cb" stroke="#393840"/><rect x="880" y="80" width="16" height="16" fill="#e8e0cb" stroke="#393840"/><rect x="880" y="208" width="16" height="16" fill="#e8e0cb" stroke="#393840"/><rect x="896" y="208" width="176" height="16" fill="#e8e0cb" stroke="#393840"/><rect x="896" y="80" width="432" height="16" fill="#e8e0cb" stroke="#393840"/><rect x="976" y="144" width="16" height="16" fill="#e8e0cb" stroke="#393840"/><rect x="992" y="144" width="176" height="16" fill="#e8e0cb" stroke="#393840"/><rect x="1072" y="208" width="16" height="16" fill="#e8e0cb" stroke="#393840"/><rect x="1088" y="208" width="192" height="16" fill="#e8e0cb" stroke="#393840"/><rect x="1168" y="144" width="16" height="16" fill="#e8e0cb" stroke="#393840"/><rect x="1280" y="160" width="64" height="64" fill="#e8e0cb" stroke="#393840"/><rect x="1312" y="96" width="16" height="16" fill="#e8e0cb" stroke="#393840"/><rect x="1472" y="176" width="16" height="64" fill="#e8e0cb" stroke="#393840"/><rect x="1472" y="160" width="16" height="16" fill="#e8e0cb" stroke="#393840"/><rect x="1488" y="160" width="96" height="80" fill="#e8e0cb" stroke="#393840"/><rect x="1488" y="32" width="96" height="48" fill="#e8e0cb" stroke="#393840"/><rect x="1584" y="208" width="160" height="32" fill="#e8e0cb" stroke="#393840"/><rect x="1648" y="176" width="16" height="16" fill="#e8e0cb" stroke="#393840"/><rect x="1728" y="160" width="16" height="48" fill="#e8e0cb" stroke="#393840"/><rect x="1728" y="160" width="16" height="48" fill="#e8e0cb" stroke="#393840"/><rect x="1776" y="160" width="32" height="80" fill="#e8e0cb" stroke="#393840"/><rect x="1840" y="208" width="208" height="32" fill="#e8e0cb" stroke="#393840"/><rect x="1840" y="160" width="80" height="48" fill="#e8e0cb" stroke="#393840"/><rect x="1840" y="32" width="208" height="48" fill="#e8e0cb" stroke="#393840"/><rect x="1952" y="160" width="32" height="48" fill="#e8e0cb" stroke="#393840"/><rect x="2016" y="160" width="32" height="48" fill="#e8e0cb" stroke="#393840"/><rect x="2048" y="80" width="16" height="16" fill="#e8e0cb" stroke="#393840"/><rect x="2064" y="80" width="16" height="16" fill="#e8e0cb" stroke="#393840"/><rect x="2080" y="80" width="16" height="16" fill="#e8e0cb" stroke="#393840"/><rect x="2096" y="80" width="16" height="16" fill="#e8e0cb" stroke="#393840"/><rect x="2112" y="80" width="16" height="16" fill="#e8e0cb" stroke="#393840"/><rect x="2128" y="80" width="16" height="16" fill="#e8e0cb" stroke="#393840"/><rect x="2048" y="32" width="512" height="16" fill="#e8e0cb" stroke="#393840"/><rect x="2048" y="160" width="208" height="32" fill="#e8e0cb" stroke="#393840"/><rect x="2256" y="208" width="304" height="32" fill="#e8e0cb" stroke="#393840"/><rect x="2256" y="144" width="48" height="64" fill="#e8e0cb" stroke="#393840"/><rect x="2272" y="48" width="32" height="48" fill="#e8e0cb" stroke="#393840"/><circle cx="1639" cy="201" r="4" fill="#f5cc62"/><circle cx="1639" cy="137" r="4" fill="#f5cc62"/><circle cx="1655" cy="201" r="4" fill="#f5cc62"/><circle cx="1655" cy="137" r="4" fill="#f5cc62"/><circle cx="1671" cy="201" r="4" fill="#f5cc62"/><circle cx="1671" cy="137" r="4" fill="#f5cc62"/><rect x="24" y="88" width="12" height="24" fill="#64ccba" stroke="none"/><g><title>enemy-podoboo</title><circle cx="262" cy="232" r="5" fill="none" stroke="#ef8290" stroke-width="2"/></g><g><title>lava-volume</title><circle cx="262" cy="208" r="5" fill="none" stroke="#ef8290" stroke-width="2"/></g><g><title>block-contents</title><circle cx="374" cy="48" r="5" fill="none" stroke="#ef8290" stroke-width="2"/></g><g><title>enemy-podoboo</title><circle cx="486" cy="232" r="5" fill="none" stroke="#ef8290" stroke-width="2"/></g><g><title>rotating-firebar</title><circle cx="790" cy="144" r="5" fill="none" stroke="#ef8290" stroke-width="2"/></g><g><title>rotating-firebar</title><circle cx="886" cy="80" r="5" fill="none" stroke="#ef8290" stroke-width="2"/></g><g><title>rotating-firebar</title><circle cx="982" cy="144" r="5" fill="none" stroke="#ef8290" stroke-width="2"/></g><g><title>rotating-firebar</title><circle cx="1174" cy="144" r="5" fill="none" stroke="#ef8290" stroke-width="2"/></g><g><title>rotating-firebar</title><circle cx="1318" cy="96" r="5" fill="none" stroke="#ef8290" stroke-width="2"/></g><g><title>platform-generator</title><circle cx="1378" cy="208" r="5" fill="none" stroke="#ef8290" stroke-width="2"/></g><g><title>platform-generator</title><circle cx="1426" cy="208" r="5" fill="none" stroke="#ef8290" stroke-width="2"/></g><g><title>rotating-firebar</title><circle cx="1478" cy="160" r="5" fill="none" stroke="#ef8290" stroke-width="2"/></g><g><title>lava-volume</title><circle cx="1750" cy="208" r="5" fill="none" stroke="#ef8290" stroke-width="2"/></g><g><title>lava-volume</title><circle cx="1814" cy="208" r="5" fill="none" stroke="#ef8290" stroke-width="2"/></g><g><title>enemy-bowser</title><circle cx="2192" cy="124" r="5" fill="none" stroke="#ef8290" stroke-width="2"/></g><g><title>bridge-axe-finish</title><circle cx="2262" cy="128" r="5" fill="none" stroke="#ef8290" stroke-width="2"/></g><g><title>castle-finish</title><circle cx="2054" cy="208" r="5" fill="none" stroke="#ef8290" stroke-width="2"/></g><g><title>source-transport-not-simulated</title><circle cx="2054" cy="208" r="5" fill="none" stroke="#ef8290" stroke-width="2"/></g><g><title>noncolliding-platform</title><circle cx="2222" cy="96" r="5" fill="none" stroke="#ef8290" stroke-width="2"/></g></svg>
