<svg xmlns="http://www.w3.org/2000/svg" viewBox="0 0 3840 240" width="3840" height="240" role="img" aria-labelledby="title"><title id="title">6-2 · 区域 1：基础地形预览，粉色圆点表示待实现机制</title><rect width="3840" height="240" fill="#16161c"/><path d="M0 0v240" stroke="#777" stroke-opacity=".22"/><text x="4" y="14" fill="#9a9394" font-size="10">0</text><path d="M256 0v240" stroke="#777" stroke-opacity=".22"/><text x="260" y="14" fill="#9a9394" font-size="10">16</text><path d="M512 0v240" stroke="#777" stroke-opacity=".22"/><text x="516" y="14" fill="#9a9394" font-size="10">32</text><path d="M768 0v240" stroke="#777" stroke-opacity=".22"/><text x="772" y="14" fill="#9a9394" font-size="10">48</text><path d="M1024 0v240" stroke="#777" stroke-opacity=".22"/><text x="1028" y="14" fill="#9a9394" font-size="10">64</text><path d="M1280 0v240" stroke="#777" stroke-opacity=".22"/><text x="1284" y="14" fill="#9a9394" font-size="10">80</text><path d="M1536 0v240" stroke="#777" stroke-opacity=".22"/><text x="1540" y="14" fill="#9a9394" font-size="10">96</text><path d="M1792 0v240" stroke="#777" stroke-opacity=".22"/><text x="1796" y="14" fill="#9a9394" font-size="10">112</text><path d="M2048 0v240" stroke="#777" stroke-opacity=".22"/><text x="2052" y="14" fill="#9a9394" font-size="10">128</text><path d="M2304 0v240" stroke="#777" stroke-opacity=".22"/><text x="2308" y="14" fill="#9a9394" font-size="10">144</text><path d="M2560 0v240" stroke="#777" stroke-opacity=".22"/><text x="2564" y="14" fill="#9a9394" font-size="10">160</text><path d="M2816 0v240" stroke="#777" stroke-opacity=".22"/><text x="2820" y="14" fill="#9a9394" font-size="10">176</text><path d="M3072 0v240" stroke="#777" stroke-opacity=".22"/><text x="3076" y="14" fill="#9a9394" font-size="10">192</text><path d="M3328 0v240" stroke="#777" stroke-opacity=".22"/><text x="3332" y="14" fill="#9a9394" font-size="10">208</text><path d="M3584 0v240" stroke="#777" stroke-opacity=".22"/><text x="3588" y="14" fill="#9a9394" font-size="10">224</text><rect x="0" y="208" width="1968" height="32" fill="#e8e0cb" stroke="#393840"/><rect x="160" y="144" width="16" height="16" fill="#e8e0cb" stroke="#393840"/><rect x="176" y="144" width="16" height="16" fill="#e8e0cb" stroke="#393840"/><rect x="192" y="144" width="16" height="16" fill="#e8e0cb" stroke="#393840"/><rect x="304" y="144" width="32" height="64" fill="#e8e0cb" stroke="#393840"/><rect x="368" y="80" width="16" height="16" fill="#e8e0cb" stroke="#393840"/><rect x="384" y="80" width="16" height="16" fill="#e8e0cb" stroke="#393840"/><rect x="400" y="80" width="16" height="16" fill="#e8e0cb" stroke="#393840"/><rect x="448" y="144" width="32" height="64" fill="#e8e0cb" stroke="#393840"/><rect x="512" y="128" width="32" height="16" fill="#e8e0cb" stroke="#393840"/><rect x="512" y="96" width="32" height="32" fill="#e8e0cb" stroke="#393840"/><rect x="560" y="176" width="32" height="32" fill="#e8e0cb" stroke="#393840"/><rect x="592" y="176" width="32" height="32" fill="#e8e0cb" stroke="#393840"/><rect x="736" y="144" width="32" height="64" fill="#e8e0cb" stroke="#393840"/><rect x="816" y="144" width="16" height="16" fill="#e8e0cb" stroke="#393840"/><rect x="832" y="144" width="16" height="16" fill="#e8e0cb" stroke="#393840"/><rect x="896" y="128" width="32" height="80" fill="#e8e0cb" stroke="#393840"/><rect x="992" y="144" width="32" height="16" fill="#e8e0cb" stroke="#393840"/><rect x="992" y="112" width="32" height="32" fill="#e8e0cb" stroke="#393840"/><rect x="1072" y="176" width="32" height="32" fill="#e8e0cb" stroke="#393840"/><rect x="1232" y="80" width="16" height="16" fill="#e8e0cb" stroke="#393840"/><rect x="1248" y="80" width="16" height="16" fill="#e8e0cb" stroke="#393840"/><rect x="1264" y="80" width="16" height="16" fill="#e8e0cb" stroke="#393840"/><rect x="1280" y="80" width="16" height="16" fill="#e8e0cb" stroke="#393840"/><rect x="1280" y="160" width="32" height="48" fill="#e8e0cb" stroke="#393840"/><rect x="1296" y="80" width="16" height="16" fill="#e8e0cb" stroke="#393840"/><rect x="1344" y="176" width="32" height="32" fill="#e8e0cb" stroke="#393840"/><rect x="1392" y="112" width="32" height="96" fill="#e8e0cb" stroke="#393840"/><rect x="1504" y="160" width="32" height="48" fill="#e8e0cb" stroke="#393840"/><rect x="1632" y="144" width="32" height="64" fill="#e8e0cb" stroke="#393840"/><rect x="1680" y="176" width="32" height="32" fill="#e8e0cb" stroke="#393840"/><rect x="1760" y="144" width="16" height="16" fill="#e8e0cb" stroke="#393840"/><rect x="1808" y="144" width="16" height="16" fill="#e8e0cb" stroke="#393840"/><rect x="1776" y="144" width="32" height="16" fill="#e8e0cb" stroke="#393840"/><rect x="1776" y="96" width="32" height="48" fill="#e8e0cb" stroke="#393840"/><rect x="1840" y="176" width="32" height="32" fill="#e8e0cb" stroke="#393840"/><rect x="1840" y="80" width="16" height="16" fill="#e8e0cb" stroke="#393840"/><rect x="1904" y="80" width="16" height="16" fill="#e8e0cb" stroke="#393840"/><rect x="1920" y="80" width="16" height="16" fill="#e8e0cb" stroke="#393840"/><rect x="1936" y="80" width="16" height="16" fill="#e8e0cb" stroke="#393840"/><rect x="1952" y="80" width="16" height="16" fill="#e8e0cb" stroke="#393840"/><rect x="1968" y="80" width="16" height="16" fill="#e8e0cb" stroke="#393840"/><rect x="1984" y="80" width="16" height="16" fill="#e8e0cb" stroke="#393840"/><rect x="2000" y="80" width="16" height="16" fill="#e8e0cb" stroke="#393840"/><rect x="2016" y="80" width="16" height="16" fill="#e8e0cb" stroke="#393840"/><rect x="2032" y="80" width="16" height="16" fill="#e8e0cb" stroke="#393840"/><rect x="2064" y="208" width="192" height="32" fill="#e8e0cb" stroke="#393840"/><rect x="2096" y="176" width="32" height="32" fill="#e8e0cb" stroke="#393840"/><rect x="2160" y="176" width="32" height="32" fill="#e8e0cb" stroke="#393840"/><rect x="2208" y="128" width="16" height="16" fill="#e8e0cb" stroke="#393840"/><rect x="2224" y="128" width="16" height="16" fill="#e8e0cb" stroke="#393840"/><rect x="2240" y="80" width="16" height="16" fill="#e8e0cb" stroke="#393840"/><rect x="2256" y="80" width="16" height="16" fill="#e8e0cb" stroke="#393840"/><rect x="2272" y="208" width="16" height="32" fill="#e8e0cb" stroke="#393840"/><rect x="2304" y="208" width="128" height="32" fill="#e8e0cb" stroke="#393840"/><rect x="2304" y="144" width="16" height="16" fill="#e8e0cb" stroke="#393840"/><rect x="2320" y="144" width="16" height="16" fill="#e8e0cb" stroke="#393840"/><rect x="2336" y="144" width="16" height="16" fill="#e8e0cb" stroke="#393840"/><rect x="2320" y="80" width="16" height="16" fill="#e8e0cb" stroke="#393840"/><rect x="2336" y="80" width="16" height="16" fill="#e8e0cb" stroke="#393840"/><rect x="2384" y="192" width="16" height="16" fill="#e8e0cb" stroke="#393840"/><rect x="2400" y="176" width="16" height="32" fill="#e8e0cb" stroke="#393840"/><rect x="2416" y="160" width="16" height="48" fill="#e8e0cb" stroke="#393840"/><rect x="2448" y="208" width="1392" height="32" fill="#e8e0cb" stroke="#393840"/><rect x="2448" y="160" width="32" height="48" fill="#e8e0cb" stroke="#393840"/><rect x="2496" y="144" width="16" height="64" fill="#e8e0cb" stroke="#393840"/><rect x="2512" y="176" width="16" height="32" fill="#e8e0cb" stroke="#393840"/><rect x="2560" y="144" width="16" height="16" fill="#e8e0cb" stroke="#393840"/><rect x="2560" y="80" width="16" height="16" fill="#e8e0cb" stroke="#393840"/><rect x="2576" y="144" width="16" height="16" fill="#e8e0cb" stroke="#393840"/><rect x="2576" y="80" width="16" height="16" fill="#e8e0cb" stroke="#393840"/><rect x="2592" y="144" width="16" height="16" fill="#e8e0cb" stroke="#393840"/><rect x="2592" y="80" width="16" height="16" fill="#e8e0cb" stroke="#393840"/><rect x="2672" y="144" width="32" height="16" fill="#e8e0cb" stroke="#393840"/><rect x="2672" y="96" width="32" height="48" fill="#e8e0cb" stroke="#393840"/><rect x="2784" y="144" width="32" height="64" fill="#e8e0cb" stroke="#393840"/><rect x="2864" y="176" width="32" height="32" fill="#e8e0cb" stroke="#393840"/><rect x="2896" y="160" width="32" height="48" fill="#e8e0cb" stroke="#393840"/><rect x="2928" y="144" width="32" height="64" fill="#e8e0cb" stroke="#393840"/><rect x="3024" y="160" width="32" height="48" fill="#e8e0cb" stroke="#393840"/><rect x="3184" y="192" width="16" height="16" fill="#e8e0cb" stroke="#393840"/><rect x="3200" y="176" width="16" height="32" fill="#e8e0cb" stroke="#393840"/><rect x="3216" y="144" width="32" height="64" fill="#e8e0cb" stroke="#393840"/><rect x="3248" y="128" width="16" height="80" fill="#e8e0cb" stroke="#393840"/><rect x="3264" y="112" width="16" height="96" fill="#e8e0cb" stroke="#393840"/><rect x="3280" y="96" width="16" height="112" fill="#e8e0cb" stroke="#393840"/><rect x="3296" y="80" width="16" height="128" fill="#e8e0cb" stroke="#393840"/><rect x="3456" y="192" width="16" height="16" fill="#e8e0cb" stroke="#393840"/><rect x="24" y="184" width="12" height="24" fill="#64ccba" stroke="none"/><g><title>source-transport-not-simulated</title><circle cx="310" cy="144" r="5" fill="none" stroke="#ef8290" stroke-width="2"/></g><g><title>enemy-piranha</title><circle cx="310" cy="144" r="5" fill="none" stroke="#ef8290" stroke-width="2"/></g><g><title>hidden-block</title><circle cx="390" cy="144" r="5" fill="none" stroke="#ef8290" stroke-width="2"/></g><g><title>block-contents</title><circle cx="390" cy="80" r="5" fill="none" stroke="#ef8290" stroke-width="2"/></g><g><title>enemy-koopa</title><circle cx="422" cy="184" r="5" fill="none" stroke="#ef8290" stroke-width="2"/></g><g><title>enemy-piranha</title><circle cx="454" cy="144" r="5" fill="none" stroke="#ef8290" stroke-width="2"/></g><g><title>enemy-piranha</title><circle cx="518" cy="96" r="5" fill="none" stroke="#ef8290" stroke-width="2"/></g><g><title>enemy-piranha</title><circle cx="566" cy="176" r="5" fill="none" stroke="#ef8290" stroke-width="2"/></g><g><title>enemy-piranha</title><circle cx="598" cy="176" r="5" fill="none" stroke="#ef8290" stroke-width="2"/></g><g><title>enemy-koopa</title><circle cx="694" cy="144" r="5" fill="none" stroke="#ef8290" stroke-width="2"/></g><g><title>enemy-piranha</title><circle cx="742" cy="144" r="5" fill="none" stroke="#ef8290" stroke-width="2"/></g><g><title>block-contents</title><circle cx="838" cy="144" r="5" fill="none" stroke="#ef8290" stroke-width="2"/></g><g><title>enemy-beetle</title><circle cx="870" cy="191" r="5" fill="none" stroke="#ef8290" stroke-width="2"/></g><g><title>source-transport-not-simulated</title><circle cx="902" cy="128" r="5" fill="none" stroke="#ef8290" stroke-width="2"/></g><g><title>enemy-piranha</title><circle cx="902" cy="128" r="5" fill="none" stroke="#ef8290" stroke-width="2"/></g><g><title>enemy-piranha</title><circle cx="998" cy="112" r="5" fill="none" stroke="#ef8290" stroke-width="2"/></g><g><title>enemy-piranha</title><circle cx="1078" cy="176" r="5" fill="none" stroke="#ef8290" stroke-width="2"/></g><g><title>enemy-piranha</title><circle cx="1286" cy="160" r="5" fill="none" stroke="#ef8290" stroke-width="2"/></g><g><title>hidden-block</title><circle cx="1318" cy="144" r="5" fill="none" stroke="#ef8290" stroke-width="2"/></g><g><title>vine-transition</title><circle cx="1302" cy="80" r="5" fill="none" stroke="#ef8290" stroke-width="2"/></g><g><title>block-contents</title><circle cx="1302" cy="80" r="5" fill="none" stroke="#ef8290" stroke-width="2"/></g><g><title>enemy-piranha</title><circle cx="1350" cy="176" r="5" fill="none" stroke="#ef8290" stroke-width="2"/></g><g><title>enemy-piranha</title><circle cx="1398" cy="112" r="5" fill="none" stroke="#ef8290" stroke-width="2"/></g><g><title>enemy-beetle</title><circle cx="1478" cy="191" r="5" fill="none" stroke="#ef8290" stroke-width="2"/></g><g><title>enemy-piranha</title><circle cx="1510" cy="160" r="5" fill="none" stroke="#ef8290" stroke-width="2"/></g><g><title>enemy-piranha</title><circle cx="1686" cy="176" r="5" fill="none" stroke="#ef8290" stroke-width="2"/></g><g><title>enemy-piranha</title><circle cx="1782" cy="96" r="5" fill="none" stroke="#ef8290" stroke-width="2"/></g><g><title>enemy-piranha</title><circle cx="1846" cy="176" r="5" fill="none" stroke="#ef8290" stroke-width="2"/></g><g><title>enemy-beetle</title><circle cx="1906" cy="63" r="5" fill="none" stroke="#ef8290" stroke-width="2"/></g><g><title>enemy-piranha</title><circle cx="2102" cy="176" r="5" fill="none" stroke="#ef8290" stroke-width="2"/></g><g><title>enemy-piranha</title><circle cx="2166" cy="176" r="5" fill="none" stroke="#ef8290" stroke-width="2"/></g><g><title>block-contents</title><circle cx="2246" cy="80" r="5" fill="none" stroke="#ef8290" stroke-width="2"/></g><g><title>source-transport-not-simulated</title><circle cx="2454" cy="160" r="5" fill="none" stroke="#ef8290" stroke-width="2"/></g><g><title>enemy-piranha</title><circle cx="2454" cy="160" r="5" fill="none" stroke="#ef8290" stroke-width="2"/></g><g><title>enemy-beetle</title><circle cx="2614" cy="191" r="5" fill="none" stroke="#ef8290" stroke-width="2"/></g><g><title>enemy-piranha</title><circle cx="2678" cy="96" r="5" fill="none" stroke="#ef8290" stroke-width="2"/></g><g><title>enemy-goomba</title><circle cx="2710" cy="192" r="5" fill="none" stroke="#ef8290" stroke-width="2"/></g><g><title>enemy-piranha</title><circle cx="2790" cy="144" r="5" fill="none" stroke="#ef8290" stroke-width="2"/></g><g><title>enemy-piranha</title><circle cx="2870" cy="176" r="5" fill="none" stroke="#ef8290" stroke-width="2"/></g><g><title>enemy-piranha</title><circle cx="2902" cy="160" r="5" fill="none" stroke="#ef8290" stroke-width="2"/></g><g><title>enemy-piranha</title><circle cx="2934" cy="144" r="5" fill="none" stroke="#ef8290" stroke-width="2"/></g><g><title>enemy-piranha</title><circle cx="3030" cy="160" r="5" fill="none" stroke="#ef8290" stroke-width="2"/></g><g><title>enemy-piranha</title><circle cx="3222" cy="144" r="5" fill="none" stroke="#ef8290" stroke-width="2"/></g><g><title>enemy-koopa</title><circle cx="3302" cy="40" r="5" fill="none" stroke="#ef8290" stroke-width="2"/></g><g><title>flagpole-finish</title><circle cx="3462" cy="208" r="5" fill="none" stroke="#ef8290" stroke-width="2"/></g><g><title>source-transport-not-simulated</title><circle cx="3462" cy="208" r="5" fill="none" stroke="#ef8290" stroke-width="2"/></g></svg>
