<svg xmlns="http://www.w3.org/2000/svg" viewBox="0 0 256 240" width="256" height="240" shape-rendering="crispEdges" role="img" aria-labelledby="title"><title id="title">7-4 · 区域 1 / 段 4 / stretch：像素素材预览，粉色标记表示参考机制</title><defs><g id="s-src_Solid_Floor_Castle_-normal"><rect x="0" y="0" width="2" height="1" fill="rgb(255,255,255)"/><rect x="2" y="0" width="1" height="1" fill="rgb(116,116,116)"/><rect x="3" y="0" width="1" height="1" fill="rgb(0,0,0)"/><rect x="4" y="0" width="6" height="1" fill="rgb(255,255,255)"/><rect x="10" y="0" width="1" height="1" fill="rgb(116,116,116)"/><rect x="11" y="0" width="1" height="1" fill="rgb(0,0,0)"/><rect x="12" y="0" width="4" height="1" fill="rgb(255,255,255)"/><rect x="0" y="1" width="2" height="1" fill="rgb(188,188,188)"/><rect x="2" y="1" width="1" height="1" fill="rgb(116,116,116)"/><rect x="3" y="1" width="1" height="1" fill="rgb(0,0,0)"/><rect x="4" y="1" width="1" height="1" fill="rgb(255,255,255)"/><rect x="5" y="1" width="5" height="1" fill="rgb(188,188,188)"/><rect x="10" y="1" width="1" height="1" fill="rgb(116,116,116)"/><rect x="11" y="1" width="1" height="1" fill="rgb(0,0,0)"/><rect x="12" y="1" width="1" height="1" fill="rgb(255,255,255)"/><rect x="13" y="1" width="3" height="1" fill="rgb(188,188,188)"/><rect x="0" y="2" width="2" height="1" fill="rgb(188,188,188)"/><rect x="2" y="2" width="1" height="1" fill="rgb(116,116,116)"/><rect x="3" y="2" width="1" height="1" fill="rgb(0,0,0)"/><rect x="4" y="2" width="1" height="1" fill="rgb(255,255,255)"/><rect x="5" y="2" width="5" height="1" fill="rgb(188,188,188)"/><rect x="10" y="2" width="1" height="1" fill="rgb(116,116,116)"/><rect x="11" y="2" width="1" height="1" fill="rgb(0,0,0)"/><rect x="12" y="2" width="1" height="1" fill="rgb(255,255,255)"/><rect x="13" y="2" width="3" height="1" fill="rgb(188,188,188)"/><rect x="0" y="3" width="2" height="1" fill="rgb(188,188,188)"/><rect x="2" y="3" width="1" height="1" fill="rgb(116,116,116)"/><rect x="3" y="3" width="1" height="1" fill="rgb(0,0,0)"/><rect x="4" y="3" width="1" height="1" fill="rgb(255,255,255)"/><rect x="5" y="3" width="5" height="1" fill="rgb(188,188,188)"/><rect x="10" y="3" width="1" height="1" fill="rgb(116,116,116)"/><rect x="11" y="3" width="1" height="1" fill="rgb(0,0,0)"/><rect x="12" y="3" width="1" height="1" fill="rgb(255,255,255)"/><rect x="13" y="3" width="3" height="1" fill="rgb(188,188,188)"/><rect x="0" y="4" width="2" height="1" fill="rgb(188,188,188)"/><rect x="2" y="4" width="1" height="1" fill="rgb(116,116,116)"/><rect x="3" y="4" width="1" height="1" fill="rgb(0,0,0)"/><rect x="4" y="4" width="1" height="1" fill="rgb(255,255,255)"/><rect x="5" y="4" width="5" height="1" fill="rgb(188,188,188)"/><rect x="10" y="4" width="1" height="1" fill="rgb(116,116,116)"/><rect x="11" y="4" width="1" height="1" fill="rgb(0,0,0)"/><rect x="12" y="4" width="1" height="1" fill="rgb(255,255,255)"/><rect x="13" y="4" width="3" height="1" fill="rgb(188,188,188)"/><rect x="0" y="5" width="2" height="1" fill="rgb(188,188,188)"/><rect x="2" y="5" width="1" height="1" fill="rgb(116,116,116)"/><rect x="3" y="5" width="1" height="1" fill="rgb(0,0,0)"/><rect x="4" y="5" width="1" height="1" fill="rgb(255,255,255)"/><rect x="5" y="5" width="5" height="1" fill="rgb(188,188,188)"/><rect x="10" y="5" width="1" height="1" fill="rgb(116,116,116)"/><rect x="11" y="5" width="1" height="1" fill="rgb(0,0,0)"/><rect x="12" y="5" width="1" height="1" fill="rgb(255,255,255)"/><rect x="13" y="5" width="3" height="1" fill="rgb(188,188,188)"/><rect x="0" y="6" width="3" height="1" fill="rgb(116,116,116)"/><rect x="3" y="6" width="1" height="1" fill="rgb(0,0,0)"/><rect x="4" y="6" width="7" height="1" fill="rgb(116,116,116)"/><rect x="11" y="6" width="1" height="1" fill="rgb(0,0,0)"/><rect x="12" y="6" width="4" height="1" fill="rgb(116,116,116)"/><rect x="0" y="7" width="16" height="1" fill="rgb(0,0,0)"/><rect x="0" y="8" width="6" height="1" fill="rgb(255,255,255)"/><rect x="6" y="8" width="1" height="1" fill="rgb(116,116,116)"/><rect x="7" y="8" width="1" height="1" fill="rgb(0,0,0)"/><rect x="8" y="8" width="6" height="1" fill="rgb(255,255,255)"/><rect x="14" y="8" width="1" height="1" fill="rgb(116,116,116)"/><rect x="15" y="8" width="1" height="1" fill="rgb(0,0,0)"/><rect x="0" y="9" width="1" height="1" fill="rgb(255,255,255)"/><rect x="1" y="9" width="5" height="1" fill="rgb(188,188,188)"/><rect x="6" y="9" width="1" height="1" fill="rgb(116,116,116)"/><rect x="7" y="9" width="1" height="1" fill="rgb(0,0,0)"/><rect x="8" y="9" width="1" height="1" fill="rgb(255,255,255)"/><rect x="9" y="9" width="5" height="1" fill="rgb(188,188,188)"/><rect x="14" y="9" width="1" height="1" fill="rgb(116,116,116)"/><rect x="15" y="9" width="1" height="1" fill="rgb(0,0,0)"/><rect x="0" y="10" width="1" height="1" fill="rgb(255,255,255)"/><rect x="1" y="10" width="5" height="1" fill="rgb(188,188,188)"/><rect x="6" y="10" width="1" height="1" fill="rgb(116,116,116)"/><rect x="7" y="10" width="1" height="1" fill="rgb(0,0,0)"/><rect x="8" y="10" width="1" height="1" fill="rgb(255,255,255)"/><rect x="9" y="10" width="5" height="1" fill="rgb(188,188,188)"/><rect x="14" y="10" width="1" height="1" fill="rgb(116,116,116)"/><rect x="15" y="10" width="1" height="1" fill="rgb(0,0,0)"/><rect x="0" y="11" width="1" height="1" fill="rgb(255,255,255)"/><rect x="1" y="11" width="5" height="1" fill="rgb(188,188,188)"/><rect x="6" y="11" width="1" height="1" fill="rgb(116,116,116)"/><rect x="7" y="11" width="1" height="1" fill="rgb(0,0,0)"/><rect x="8" y="11" width="1" height="1" fill="rgb(255,255,255)"/><rect x="9" y="11" width="5" height="1" fill="rgb(188,188,188)"/><rect x="14" y="11" width="1" height="1" fill="rgb(116,116,116)"/><rect x="15" y="11" width="1" height="1" fill="rgb(0,0,0)"/><rect x="0" y="12" width="1" height="1" fill="rgb(255,255,255)"/><rect x="1" y="12" width="5" height="1" fill="rgb(188,188,188)"/><rect x="6" y="12" width="1" height="1" fill="rgb(116,116,116)"/><rect x="7" y="12" width="1" height="1" fill="rgb(0,0,0)"/><rect x="8" y="12" width="1" height="1" fill="rgb(255,255,255)"/><rect x="9" y="12" width="5" height="1" fill="rgb(188,188,188)"/><rect x="14" y="12" width="1" height="1" fill="rgb(116,116,116)"/><rect x="15" y="12" width="1" height="1" fill="rgb(0,0,0)"/><rect x="0" y="13" width="1" height="1" fill="rgb(255,255,255)"/><rect x="1" y="13" width="5" height="1" fill="rgb(188,188,188)"/><rect x="6" y="13" width="1" height="1" fill="rgb(116,116,116)"/><rect x="7" y="13" width="1" height="1" fill="rgb(0,0,0)"/><rect x="8" y="13" width="1" height="1" fill="rgb(255,255,255)"/><rect x="9" y="13" width="5" height="1" fill="rgb(188,188,188)"/><rect x="14" y="13" width="1" height="1" fill="rgb(116,116,116)"/><rect x="15" y="13" width="1" height="1" fill="rgb(0,0,0)"/><rect x="0" y="14" width="7" height="1" fill="rgb(116,116,116)"/><rect x="7" y="14" width="1" height="1" fill="rgb(0,0,0)"/><rect x="8" y="14" width="7" height="1" fill="rgb(116,116,116)"/><rect x="15" y="14" width="1" height="1" fill="rgb(0,0,0)"/><rect x="0" y="15" width="16" height="1" fill="rgb(0,0,0)"/></g><pattern id="p-s-src_Solid_Floor_Castle_-normal" width="16" height="16" patternUnits="userSpaceOnUse"><use href="#s-src_Solid_Floor_Castle_-normal"/></pattern><g id="s-src_Solid_Stone_Castle_-normal"><rect x="0" y="0" width="2" height="1" fill="rgb(255,255,255)"/><rect x="2" y="0" width="1" height="1" fill="rgb(116,116,116)"/><rect x="3" y="0" width="1" height="1" fill="rgb(0,0,0)"/><rect x="4" y="0" width="6" height="1" fill="rgb(255,255,255)"/><rect x="10" y="0" width="1" height="1" fill="rgb(116,116,116)"/><rect x="11" y="0" width="1" height="1" fill="rgb(0,0,0)"/><rect x="12" y="0" width="4" height="1" fill="rgb(255,255,255)"/><rect x="0" y="1" width="2" height="1" fill="rgb(188,188,188)"/><rect x="2" y="1" width="1" height="1" fill="rgb(116,116,116)"/><rect x="3" y="1" width="1" height="1" fill="rgb(0,0,0)"/><rect x="4" y="1" width="1" height="1" fill="rgb(255,255,255)"/><rect x="5" y="1" width="5" height="1" fill="rgb(188,188,188)"/><rect x="10" y="1" width="1" height="1" fill="rgb(116,116,116)"/><rect x="11" y="1" width="1" height="1" fill="rgb(0,0,0)"/><rect x="12" y="1" width="1" height="1" fill="rgb(255,255,255)"/><rect x="13" y="1" width="3" height="1" fill="rgb(188,188,188)"/><rect x="0" y="2" width="2" height="1" fill="rgb(188,188,188)"/><rect x="2" y="2" width="1" height="1" fill="rgb(116,116,116)"/><rect x="3" y="2" width="1" height="1" fill="rgb(0,0,0)"/><rect x="4" y="2" width="1" height="1" fill="rgb(255,255,255)"/><rect x="5" y="2" width="5" height="1" fill="rgb(188,188,188)"/><rect x="10" y="2" width="1" height="1" fill="rgb(116,116,116)"/><rect x="11" y="2" width="1" height="1" fill="rgb(0,0,0)"/><rect x="12" y="2" width="1" height="1" fill="rgb(255,255,255)"/><rect x="13" y="2" width="3" height="1" fill="rgb(188,188,188)"/><rect x="0" y="3" width="2" height="1" fill="rgb(188,188,188)"/><rect x="2" y="3" width="1" height="1" fill="rgb(116,116,116)"/><rect x="3" y="3" width="1" height="1" fill="rgb(0,0,0)"/><rect x="4" y="3" width="1" height="1" fill="rgb(255,255,255)"/><rect x="5" y="3" width="5" height="1" fill="rgb(188,188,188)"/><rect x="10" y="3" width="1" height="1" fill="rgb(116,116,116)"/><rect x="11" y="3" width="1" height="1" fill="rgb(0,0,0)"/><rect x="12" y="3" width="1" height="1" fill="rgb(255,255,255)"/><rect x="13" y="3" width="3" height="1" fill="rgb(188,188,188)"/><rect x="0" y="4" width="2" height="1" fill="rgb(188,188,188)"/><rect x="2" y="4" width="1" height="1" fill="rgb(116,116,116)"/><rect x="3" y="4" width="1" height="1" fill="rgb(0,0,0)"/><rect x="4" y="4" width="1" height="1" fill="rgb(255,255,255)"/><rect x="5" y="4" width="5" height="1" fill="rgb(188,188,188)"/><rect x="10" y="4" width="1" height="1" fill="rgb(116,116,116)"/><rect x="11" y="4" width="1" height="1" fill="rgb(0,0,0)"/><rect x="12" y="4" width="1" height="1" fill="rgb(255,255,255)"/><rect x="13" y="4" width="3" height="1" fill="rgb(188,188,188)"/><rect x="0" y="5" width="2" height="1" fill="rgb(188,188,188)"/><rect x="2" y="5" width="1" height="1" fill="rgb(116,116,116)"/><rect x="3" y="5" width="1" height="1" fill="rgb(0,0,0)"/><rect x="4" y="5" width="1" height="1" fill="rgb(255,255,255)"/><rect x="5" y="5" width="5" height="1" fill="rgb(188,188,188)"/><rect x="10" y="5" width="1" height="1" fill="rgb(116,116,116)"/><rect x="11" y="5" width="1" height="1" fill="rgb(0,0,0)"/><rect x="12" y="5" width="1" height="1" fill="rgb(255,255,255)"/><rect x="13" y="5" width="3" height="1" fill="rgb(188,188,188)"/><rect x="0" y="6" width="3" height="1" fill="rgb(116,116,116)"/><rect x="3" y="6" width="1" height="1" fill="rgb(0,0,0)"/><rect x="4" y="6" width="7" height="1" fill="rgb(116,116,116)"/><rect x="11" y="6" width="1" height="1" fill="rgb(0,0,0)"/><rect x="12" y="6" width="4" height="1" fill="rgb(116,116,116)"/><rect x="0" y="7" width="16" height="1" fill="rgb(0,0,0)"/><rect x="0" y="8" width="6" height="1" fill="rgb(255,255,255)"/><rect x="6" y="8" width="1" height="1" fill="rgb(116,116,116)"/><rect x="7" y="8" width="1" height="1" fill="rgb(0,0,0)"/><rect x="8" y="8" width="6" height="1" fill="rgb(255,255,255)"/><rect x="14" y="8" width="1" height="1" fill="rgb(116,116,116)"/><rect x="15" y="8" width="1" height="1" fill="rgb(0,0,0)"/><rect x="0" y="9" width="1" height="1" fill="rgb(255,255,255)"/><rect x="1" y="9" width="5" height="1" fill="rgb(188,188,188)"/><rect x="6" y="9" width="1" height="1" fill="rgb(116,116,116)"/><rect x="7" y="9" width="1" height="1" fill="rgb(0,0,0)"/><rect x="8" y="9" width="1" height="1" fill="rgb(255,255,255)"/><rect x="9" y="9" width="5" height="1" fill="rgb(188,188,188)"/><rect x="14" y="9" width="1" height="1" fill="rgb(116,116,116)"/><rect x="15" y="9" width="1" height="1" fill="rgb(0,0,0)"/><rect x="0" y="10" width="1" height="1" fill="rgb(255,255,255)"/><rect x="1" y="10" width="5" height="1" fill="rgb(188,188,188)"/><rect x="6" y="10" width="1" height="1" fill="rgb(116,116,116)"/><rect x="7" y="10" width="1" height="1" fill="rgb(0,0,0)"/><rect x="8" y="10" width="1" height="1" fill="rgb(255,255,255)"/><rect x="9" y="10" width="5" height="1" fill="rgb(188,188,188)"/><rect x="14" y="10" width="1" height="1" fill="rgb(116,116,116)"/><rect x="15" y="10" width="1" height="1" fill="rgb(0,0,0)"/><rect x="0" y="11" width="1" height="1" fill="rgb(255,255,255)"/><rect x="1" y="11" width="5" height="1" fill="rgb(188,188,188)"/><rect x="6" y="11" width="1" height="1" fill="rgb(116,116,116)"/><rect x="7" y="11" width="1" height="1" fill="rgb(0,0,0)"/><rect x="8" y="11" width="1" height="1" fill="rgb(255,255,255)"/><rect x="9" y="11" width="5" height="1" fill="rgb(188,188,188)"/><rect x="14" y="11" width="1" height="1" fill="rgb(116,116,116)"/><rect x="15" y="11" width="1" height="1" fill="rgb(0,0,0)"/><rect x="0" y="12" width="1" height="1" fill="rgb(255,255,255)"/><rect x="1" y="12" width="5" height="1" fill="rgb(188,188,188)"/><rect x="6" y="12" width="1" height="1" fill="rgb(116,116,116)"/><rect x="7" y="12" width="1" height="1" fill="rgb(0,0,0)"/><rect x="8" y="12" width="1" height="1" fill="rgb(255,255,255)"/><rect x="9" y="12" width="5" height="1" fill="rgb(188,188,188)"/><rect x="14" y="12" width="1" height="1" fill="rgb(116,116,116)"/><rect x="15" y="12" width="1" height="1" fill="rgb(0,0,0)"/><rect x="0" y="13" width="1" height="1" fill="rgb(255,255,255)"/><rect x="1" y="13" width="5" height="1" fill="rgb(188,188,188)"/><rect x="6" y="13" width="1" height="1" fill="rgb(116,116,116)"/><rect x="7" y="13" width="1" height="1" fill="rgb(0,0,0)"/><rect x="8" y="13" width="1" height="1" fill="rgb(255,255,255)"/><rect x="9" y="13" width="5" height="1" fill="rgb(188,188,188)"/><rect x="14" y="13" width="1" height="1" fill="rgb(116,116,116)"/><rect x="15" y="13" width="1" height="1" fill="rgb(0,0,0)"/><rect x="0" y="14" width="7" height="1" fill="rgb(116,116,116)"/><rect x="7" y="14" width="1" height="1" fill="rgb(0,0,0)"/><rect x="8" y="14" width="7" height="1" fill="rgb(116,116,116)"/><rect x="15" y="14" width="1" height="1" fill="rgb(0,0,0)"/><rect x="0" y="15" width="16" height="1" fill="rgb(0,0,0)"/></g><pattern id="p-s-src_Solid_Stone_Castle_-normal" width="16" height="16" patternUnits="userSpaceOnUse"><use href="#s-src_Solid_Stone_Castle_-normal"/></pattern><g id="s-small_idle-normal"><rect x="4" y="0" width="6" height="1" fill="rgb(216,40,0)"/><rect x="3" y="1" width="10" height="1" fill="rgb(216,40,0)"/><rect x="3" y="2" width="4" height="1" fill="rgb(136,112,0)"/><rect x="7" y="2" width="2" height="1" fill="rgb(252,152,56)"/><rect x="9" y="2" width="1" height="1" fill="rgb(136,112,0)"/><rect x="10" y="2" width="1" height="1" fill="rgb(252,152,56)"/><rect x="2" y="3" width="2" height="1" fill="rgb(136,112,0)"/><rect x="4" y="3" width="1" height="1" fill="rgb(252,152,56)"/><rect x="5" y="3" width="1" height="1" fill="rgb(136,112,0)"/><rect x="6" y="3" width="3" height="1" fill="rgb(252,152,56)"/><rect x="9" y="3" width="1" height="1" fill="rgb(136,112,0)"/><rect x="10" y="3" width="3" height="1" fill="rgb(252,152,56)"/><rect x="2" y="4" width="2" height="1" fill="rgb(136,112,0)"/><rect x="4" y="4" width="1" height="1" fill="rgb(252,152,56)"/><rect x="5" y="4" width="2" height="1" fill="rgb(136,112,0)"/><rect x="7" y="4" width="3" height="1" fill="rgb(252,152,56)"/><rect x="10" y="4" width="1" height="1" fill="rgb(136,112,0)"/><rect x="11" y="4" width="3" height="1" fill="rgb(252,152,56)"/><rect x="2" y="5" width="3" height="1" fill="rgb(136,112,0)"/><rect x="5" y="5" width="4" height="1" fill="rgb(252,152,56)"/><rect x="9" y="5" width="4" height="1" fill="rgb(136,112,0)"/><rect x="4" y="6" width="8" height="1" fill="rgb(252,152,56)"/><rect x="3" y="7" width="3" height="1" fill="rgb(136,112,0)"/><rect x="6" y="7" width="1" height="1" fill="rgb(216,40,0)"/><rect x="7" y="7" width="3" height="1" fill="rgb(136,112,0)"/><rect x="2" y="8" width="4" height="1" fill="rgb(136,112,0)"/><rect x="6" y="8" width="1" height="1" fill="rgb(216,40,0)"/><rect x="7" y="8" width="2" height="1" fill="rgb(136,112,0)"/><rect x="9" y="8" width="1" height="1" fill="rgb(216,40,0)"/><rect x="10" y="8" width="3" height="1" fill="rgb(136,112,0)"/><rect x="1" y="9" width="5" height="1" fill="rgb(136,112,0)"/><rect x="6" y="9" width="4" height="1" fill="rgb(216,40,0)"/><rect x="10" y="9" width="4" height="1" fill="rgb(136,112,0)"/><rect x="1" y="10" width="3" height="1" fill="rgb(252,152,56)"/><rect x="4" y="10" width="1" height="1" fill="rgb(136,112,0)"/><rect x="5" y="10" width="1" height="1" fill="rgb(216,40,0)"/><rect x="6" y="10" width="1" height="1" fill="rgb(252,152,56)"/><rect x="7" y="10" width="2" height="1" fill="rgb(216,40,0)"/><rect x="9" y="10" width="1" height="1" fill="rgb(252,152,56)"/><rect x="10" y="10" width="1" height="1" fill="rgb(216,40,0)"/><rect x="11" y="10" width="1" height="1" fill="rgb(136,112,0)"/><rect x="12" y="10" width="2" height="1" fill="rgb(252,152,56)"/><rect x="1" y="11" width="4" height="1" fill="rgb(252,152,56)"/><rect x="5" y="11" width="6" height="1" fill="rgb(216,40,0)"/><rect x="11" y="11" width="3" height="1" fill="rgb(252,152,56)"/><rect x="1" y="12" width="3" height="1" fill="rgb(252,152,56)"/><rect x="4" y="12" width="8" height="1" fill="rgb(216,40,0)"/><rect x="12" y="12" width="2" height="1" fill="rgb(252,152,56)"/><rect x="3" y="13" width="4" height="1" fill="rgb(216,40,0)"/><rect x="8" y="13" width="4" height="1" fill="rgb(216,40,0)"/><rect x="2" y="14" width="4" height="1" fill="rgb(136,112,0)"/><rect x="9" y="14" width="4" height="1" fill="rgb(136,112,0)"/><rect x="1" y="15" width="5" height="1" fill="rgb(136,112,0)"/><rect x="9" y="15" width="5" height="1" fill="rgb(136,112,0)"/></g></defs><rect width="256" height="240" fill="#000"/><rect transform="translate(0 208)" width="16" height="32" fill="url(#p-s-src_Solid_Floor_Castle_-normal)"/><rect transform="translate(0 96)" width="16" height="64" fill="url(#p-s-src_Solid_Stone_Castle_-normal)"/><rect transform="translate(0 32)" width="16" height="16" fill="url(#p-s-src_Solid_Stone_Castle_-normal)"/><g><title>马里奥起点</title><use href="#s-small_idle-normal" x="22" y="32"/></g><g><title>conditional-sectionfail</title><circle cx="6" cy="160" r="5" fill="none" stroke="#ff8290" stroke-width="2"/></g><g><title>conditional-sectionpass</title><circle cx="6" cy="48" r="5" fill="none" stroke="#ff8290" stroke-width="2"/></g><g><title>conditional-section-runtime</title><circle cx="6" cy="32" r="5" fill="none" stroke="#ff8290" stroke-width="2"/></g></svg>
