<svg xmlns="http://www.w3.org/2000/svg" viewBox="0 0 976 240" width="976" height="240" role="img" aria-labelledby="title"><title id="title">8-4 · 区域 5：基础地形预览，粉色圆点表示待实现机制</title><rect width="976" height="240" fill="#16161c"/><path d="M0 0v240" stroke="#777" stroke-opacity=".22"/><text x="4" y="14" fill="#9a9394" font-size="10">0</text><path d="M256 0v240" stroke="#777" stroke-opacity=".22"/><text x="260" y="14" fill="#9a9394" font-size="10">16</text><path d="M512 0v240" stroke="#777" stroke-opacity=".22"/><text x="516" y="14" fill="#9a9394" font-size="10">32</text><path d="M768 0v240" stroke="#777" stroke-opacity=".22"/><text x="772" y="14" fill="#9a9394" font-size="10">48</text><rect x="256" y="204" width="112" height="36" fill="#9b3f36" opacity=".75"/><rect x="0" y="176" width="32" height="64" fill="#e8e0cb" stroke="#393840"/><rect x="0" y="32" width="464" height="16" fill="#e8e0cb" stroke="#393840"/><rect x="32" y="208" width="80" height="32" fill="#e8e0cb" stroke="#393840"/><rect x="112" y="176" width="32" height="64" fill="#e8e0cb" stroke="#393840"/><rect x="144" y="208" width="144" height="32" fill="#e8e0cb" stroke="#393840"/><rect x="368" y="160" width="96" height="80" fill="#e8e0cb" stroke="#393840"/><rect x="368" y="48" width="96" height="32" fill="#e8e0cb" stroke="#393840"/><rect x="464" y="32" width="512" height="16" fill="#e8e0cb" stroke="#393840"/><rect x="464" y="160" width="208" height="32" fill="#e8e0cb" stroke="#393840"/><rect x="672" y="208" width="304" height="32" fill="#e8e0cb" stroke="#393840"/><rect x="672" y="144" width="48" height="64" fill="#e8e0cb" stroke="#393840"/><rect x="688" y="48" width="32" height="48" fill="#e8e0cb" stroke="#393840"/><rect x="24" y="152" width="12" height="24" fill="#64ccba" stroke="none"/><g><title>enemy-piranha</title><circle cx="6" cy="176" r="5" fill="none" stroke="#ef8290" stroke-width="2"/></g><g><title>source-transport-not-simulated</title><circle cx="118" cy="176" r="5" fill="none" stroke="#ef8290" stroke-width="2"/></g><g><title>enemy-piranha</title><circle cx="118" cy="176" r="5" fill="none" stroke="#ef8290" stroke-width="2"/></g><g><title>enemy-hammerbro</title><circle cx="230" cy="184" r="5" fill="none" stroke="#ef8290" stroke-width="2"/></g><g><title>lava-volume</title><circle cx="262" cy="208" r="5" fill="none" stroke="#ef8290" stroke-width="2"/></g><g><title>enemy-podoboo</title><circle cx="326" cy="232" r="5" fill="none" stroke="#ef8290" stroke-width="2"/></g><g><title>enemy-bowser</title><circle cx="608" cy="124" r="5" fill="none" stroke="#ef8290" stroke-width="2"/></g><g><title>bridge-axe-finish</title><circle cx="678" cy="128" r="5" fill="none" stroke="#ef8290" stroke-width="2"/></g><g><title>castle-finish</title><circle cx="470" cy="208" r="5" fill="none" stroke="#ef8290" stroke-width="2"/></g><g><title>source-transport-not-simulated</title><circle cx="470" cy="208" r="5" fill="none" stroke="#ef8290" stroke-width="2"/></g></svg>
