<svg xmlns="http://www.w3.org/2000/svg" viewBox="0 0 96 72" width="96" height="72">
  <g transform="rotate(-6 48 36)">
    <path d="M15 13h75v52H15Z" fill="#ed263d"/>
    <path d="M9 7h75v52H9Z" fill="#111116" stroke="#f7f5ed" stroke-width="2.8"/>
    <path d="M10 20h72" stroke="#f7f5ed" stroke-width="2.4"/>
    <circle cx="16" cy="13.5" r="1.8" fill="#ed263d"/>
    <circle cx="22" cy="13.5" r="1.8" fill="#f7f5ed"/>
    <path d="M33 13.5h36" stroke="#f7f5ed" stroke-width="2.5"/>
    <path d="M17 28h15v9H17Z" fill="#f7f5ed"/>
    <path d="M38 28h33m-33 7h24" stroke="#f7f5ed" stroke-width="2.5"/>
    <path d="M17 44h18v8H17Zm26 0h18v8H43Z" fill="none" stroke="#f7f5ed" stroke-width="2"/>
    <path d="m69 39 15 10-7 1 2 10-5 1-2-10-6 4Z" fill="#f7f5ed" stroke="#111116" stroke-width="1.6" stroke-linejoin="round"/>
  </g>
</svg>
