<svg xmlns="http://www.w3.org/2000/svg" viewBox="0 0 6432 240" width="6432" height="240" role="img" aria-labelledby="title"><title id="title">8-1 · 区域 1：基础地形预览，粉色圆点表示待实现机制</title><rect width="6432" height="240" fill="#16161c"/><path d="M0 0v240" stroke="#777" stroke-opacity=".22"/><text x="4" y="14" fill="#9a9394" font-size="10">0</text><path d="M256 0v240" stroke="#777" stroke-opacity=".22"/><text x="260" y="14" fill="#9a9394" font-size="10">16</text><path d="M512 0v240" stroke="#777" stroke-opacity=".22"/><text x="516" y="14" fill="#9a9394" font-size="10">32</text><path d="M768 0v240" stroke="#777" stroke-opacity=".22"/><text x="772" y="14" fill="#9a9394" font-size="10">48</text><path d="M1024 0v240" stroke="#777" stroke-opacity=".22"/><text x="1028" y="14" fill="#9a9394" font-size="10">64</text><path d="M1280 0v240" stroke="#777" stroke-opacity=".22"/><text x="1284" y="14" fill="#9a9394" font-size="10">80</text><path d="M1536 0v240" stroke="#777" stroke-opacity=".22"/><text x="1540" y="14" fill="#9a9394" font-size="10">96</text><path d="M1792 0v240" stroke="#777" stroke-opacity=".22"/><text x="1796" y="14" fill="#9a9394" font-size="10">112</text><path d="M2048 0v240" stroke="#777" stroke-opacity=".22"/><text x="2052" y="14" fill="#9a9394" font-size="10">128</text><path d="M2304 0v240" stroke="#777" stroke-opacity=".22"/><text x="2308" y="14" fill="#9a9394" font-size="10">144</text><path d="M2560 0v240" stroke="#777" stroke-opacity=".22"/><text x="2564" y="14" fill="#9a9394" font-size="10">160</text><path d="M2816 0v240" stroke="#777" stroke-opacity=".22"/><text x="2820" y="14" fill="#9a9394" font-size="10">176</text><path d="M3072 0v240" stroke="#777" stroke-opacity=".22"/><text x="3076" y="14" fill="#9a9394" font-size="10">192</text><path d="M3328 0v240" stroke="#777" stroke-opacity=".22"/><text x="3332" y="14" fill="#9a9394" font-size="10">208</text><path d="M3584 0v240" stroke="#777" stroke-opacity=".22"/><text x="3588" y="14" fill="#9a9394" font-size="10">224</text><path d="M3840 0v240" stroke="#777" stroke-opacity=".22"/><text x="3844" y="14" fill="#9a9394" font-size="10">240</text><path d="M4096 0v240" stroke="#777" stroke-opacity=".22"/><text x="4100" y="14" fill="#9a9394" font-size="10">256</text><path d="M4352 0v240" stroke="#777" stroke-opacity=".22"/><text x="4356" y="14" fill="#9a9394" font-size="10">272</text><path d="M4608 0v240" stroke="#777" stroke-opacity=".22"/><text x="4612" y="14" fill="#9a9394" font-size="10">288</text><path d="M4864 0v240" stroke="#777" stroke-opacity=".22"/><text x="4868" y="14" fill="#9a9394" font-size="10">304</text><path d="M5120 0v240" stroke="#777" stroke-opacity=".22"/><text x="5124" y="14" fill="#9a9394" font-size="10">320</text><path d="M5376 0v240" stroke="#777" stroke-opacity=".22"/><text x="5380" y="14" fill="#9a9394" font-size="10">336</text><path d="M5632 0v240" stroke="#777" stroke-opacity=".22"/><text x="5636" y="14" fill="#9a9394" font-size="10">352</text><path d="M5888 0v240" stroke="#777" stroke-opacity=".22"/><text x="5892" y="14" fill="#9a9394" font-size="10">368</text><path d="M6144 0v240" stroke="#777" stroke-opacity=".22"/><text x="6148" y="14" fill="#9a9394" font-size="10">384</text><path d="M6400 0v240" stroke="#777" stroke-opacity=".22"/><text x="6404" y="14" fill="#9a9394" font-size="10">400</text><rect x="0" y="208" width="736" height="32" fill="#e8e0cb" stroke="#393840"/><rect x="560" y="144" width="32" height="64" fill="#e8e0cb" stroke="#393840"/><rect x="752" y="208" width="16" height="32" fill="#e8e0cb" stroke="#393840"/><rect x="784" y="208" width="32" height="32" fill="#e8e0cb" stroke="#393840"/><rect x="832" y="208" width="32" height="32" fill="#e8e0cb" stroke="#393840"/><rect x="880" y="208" width="32" height="32" fill="#e8e0cb" stroke="#393840"/><rect x="928" y="208" width="1776" height="32" fill="#e8e0cb" stroke="#393840"/><rect x="1216" y="144" width="32" height="64" fill="#e8e0cb" stroke="#393840"/><rect x="1312" y="160" width="32" height="48" fill="#e8e0cb" stroke="#393840"/><rect x="1504" y="144" width="32" height="64" fill="#e8e0cb" stroke="#393840"/><rect x="1664" y="144" width="32" height="64" fill="#e8e0cb" stroke="#393840"/><rect x="1840" y="176" width="32" height="32" fill="#e8e0cb" stroke="#393840"/><rect x="2240" y="160" width="32" height="48" fill="#e8e0cb" stroke="#393840"/><rect x="2448" y="144" width="16" height="64" fill="#e8e0cb" stroke="#393840"/><rect x="2464" y="80" width="16" height="16" fill="#e8e0cb" stroke="#393840"/><rect x="2480" y="80" width="16" height="16" fill="#e8e0cb" stroke="#393840"/><rect x="2496" y="80" width="16" height="16" fill="#e8e0cb" stroke="#393840"/><rect x="2512" y="80" width="16" height="16" fill="#e8e0cb" stroke="#393840"/><rect x="2528" y="80" width="16" height="16" fill="#e8e0cb" stroke="#393840"/><rect x="2544" y="80" width="16" height="16" fill="#e8e0cb" stroke="#393840"/><rect x="2560" y="80" width="16" height="16" fill="#e8e0cb" stroke="#393840"/><rect x="2576" y="80" width="16" height="16" fill="#e8e0cb" stroke="#393840"/><rect x="2608" y="144" width="16" height="64" fill="#e8e0cb" stroke="#393840"/><rect x="2720" y="208" width="16" height="32" fill="#e8e0cb" stroke="#393840"/><rect x="2752" y="208" width="32" height="32" fill="#e8e0cb" stroke="#393840"/><rect x="2800" y="208" width="16" height="32" fill="#e8e0cb" stroke="#393840"/><rect x="2832" y="208" width="32" height="32" fill="#e8e0cb" stroke="#393840"/><rect x="2832" y="208" width="32" height="32" fill="#e8e0cb" stroke="#393840"/><rect x="2880" y="208" width="272" height="32" fill="#e8e0cb" stroke="#393840"/><rect x="2944" y="128" width="16" height="16" fill="#e8e0cb" stroke="#393840"/><rect x="2960" y="128" width="16" height="16" fill="#e8e0cb" stroke="#393840"/><rect x="2976" y="128" width="16" height="16" fill="#e8e0cb" stroke="#393840"/><rect x="2992" y="128" width="16" height="16" fill="#e8e0cb" stroke="#393840"/><rect x="3008" y="128" width="16" height="16" fill="#e8e0cb" stroke="#393840"/><rect x="3024" y="128" width="16" height="16" fill="#e8e0cb" stroke="#393840"/><rect x="3040" y="128" width="16" height="16" fill="#e8e0cb" stroke="#393840"/><rect x="3056" y="128" width="16" height="16" fill="#e8e0cb" stroke="#393840"/><rect x="3168" y="208" width="16" height="32" fill="#e8e0cb" stroke="#393840"/><rect x="3200" y="208" width="16" height="32" fill="#e8e0cb" stroke="#393840"/><rect x="3232" y="208" width="304" height="32" fill="#e8e0cb" stroke="#393840"/><rect x="3360" y="176" width="16" height="32" fill="#e8e0cb" stroke="#393840"/><rect x="3632" y="208" width="160" height="32" fill="#e8e0cb" stroke="#393840"/><rect x="3808" y="208" width="32" height="32" fill="#e8e0cb" stroke="#393840"/><rect x="3808" y="160" width="32" height="48" fill="#e8e0cb" stroke="#393840"/><rect x="3872" y="208" width="16" height="32" fill="#e8e0cb" stroke="#393840"/><rect x="3936" y="208" width="704" height="32" fill="#e8e0cb" stroke="#393840"/><rect x="3936" y="128" width="32" height="80" fill="#e8e0cb" stroke="#393840"/><rect x="4400" y="192" width="16" height="16" fill="#e8e0cb" stroke="#393840"/><rect x="4416" y="176" width="16" height="32" fill="#e8e0cb" stroke="#393840"/><rect x="4432" y="160" width="16" height="48" fill="#e8e0cb" stroke="#393840"/><rect x="4448" y="144" width="16" height="64" fill="#e8e0cb" stroke="#393840"/><rect x="4464" y="128" width="16" height="80" fill="#e8e0cb" stroke="#393840"/><rect x="4480" y="112" width="16" height="96" fill="#e8e0cb" stroke="#393840"/><rect x="4688" y="208" width="32" height="32" fill="#e8e0cb" stroke="#393840"/><rect x="4768" y="208" width="256" height="32" fill="#e8e0cb" stroke="#393840"/><rect x="4848" y="176" width="16" height="32" fill="#e8e0cb" stroke="#393840"/><rect x="4912" y="176" width="16" height="32" fill="#e8e0cb" stroke="#393840"/><rect x="5104" y="208" width="16" height="32" fill="#e8e0cb" stroke="#393840"/><rect x="5200" y="208" width="544" height="32" fill="#e8e0cb" stroke="#393840"/><rect x="5504" y="160" width="32" height="48" fill="#e8e0cb" stroke="#393840"/><rect x="5680" y="176" width="32" height="32" fill="#e8e0cb" stroke="#393840"/><rect x="5760" y="208" width="16" height="32" fill="#e8e0cb" stroke="#393840"/><rect x="5760" y="176" width="16" height="32" fill="#e8e0cb" stroke="#393840"/><rect x="5792" y="208" width="16" height="32" fill="#e8e0cb" stroke="#393840"/><rect x="5792" y="144" width="16" height="64" fill="#e8e0cb" stroke="#393840"/><rect x="5824" y="208" width="16" height="32" fill="#e8e0cb" stroke="#393840"/><rect x="5824" y="112" width="16" height="96" fill="#e8e0cb" stroke="#393840"/><rect x="5856" y="208" width="576" height="32" fill="#e8e0cb" stroke="#393840"/><rect x="5856" y="80" width="32" height="128" fill="#e8e0cb" stroke="#393840"/><rect x="6016" y="192" width="16" height="16" fill="#e8e0cb" stroke="#393840"/><circle cx="1031" cy="137" r="4" fill="#f5cc62"/><circle cx="1431" cy="137" r="4" fill="#f5cc62"/><circle cx="1577" cy="137" r="4" fill="#f5cc62"/><circle cx="1751" cy="73" r="4" fill="#f5cc62"/><circle cx="1767" cy="73" r="4" fill="#f5cc62"/><circle cx="3575" cy="137" r="4" fill="#f5cc62"/><circle cx="3591" cy="137" r="4" fill="#f5cc62"/><circle cx="4535" cy="137" r="4" fill="#f5cc62"/><circle cx="4551" cy="137" r="4" fill="#f5cc62"/><circle cx="4663" cy="137" r="4" fill="#f5cc62"/><circle cx="4743" cy="137" r="4" fill="#f5cc62"/><circle cx="5063" cy="137" r="4" fill="#f5cc62"/><circle cx="5079" cy="137" r="4" fill="#f5cc62"/><circle cx="5143" cy="137" r="4" fill="#f5cc62"/><circle cx="5159" cy="137" r="4" fill="#f5cc62"/><rect x="24" y="184" width="12" height="24" fill="#64ccba" stroke="none"/><g><title>enemy-beetle</title><circle cx="294" cy="191" r="5" fill="none" stroke="#ef8290" stroke-width="2"/></g><g><title>enemy-goomba</title><circle cx="374" cy="192" r="5" fill="none" stroke="#ef8290" stroke-width="2"/></g><g><title>enemy-goomba</title><circle cx="398" cy="192" r="5" fill="none" stroke="#ef8290" stroke-width="2"/></g><g><title>enemy-goomba</title><circle cx="422" cy="192" r="5" fill="none" stroke="#ef8290" stroke-width="2"/></g><g><title>enemy-goomba</title><circle cx="486" cy="192" r="5" fill="none" stroke="#ef8290" stroke-width="2"/></g><g><title>enemy-goomba</title><circle cx="510" cy="192" r="5" fill="none" stroke="#ef8290" stroke-width="2"/></g><g><title>enemy-goomba</title><circle cx="534" cy="192" r="5" fill="none" stroke="#ef8290" stroke-width="2"/></g><g><title>enemy-piranha</title><circle cx="566" cy="144" r="5" fill="none" stroke="#ef8290" stroke-width="2"/></g><g><title>enemy-koopa</title><circle cx="694" cy="184" r="5" fill="none" stroke="#ef8290" stroke-width="2"/></g><g><title>enemy-koopa</title><circle cx="718" cy="184" r="5" fill="none" stroke="#ef8290" stroke-width="2"/></g><g><title>enemy-koopa</title><circle cx="982" cy="184" r="5" fill="none" stroke="#ef8290" stroke-width="2"/></g><g><title>enemy-goomba</title><circle cx="1110" cy="192" r="5" fill="none" stroke="#ef8290" stroke-width="2"/></g><g><title>enemy-goomba</title><circle cx="1134" cy="192" r="5" fill="none" stroke="#ef8290" stroke-width="2"/></g><g><title>enemy-goomba</title><circle cx="1158" cy="192" r="5" fill="none" stroke="#ef8290" stroke-width="2"/></g><g><title>enemy-piranha</title><circle cx="1222" cy="144" r="5" fill="none" stroke="#ef8290" stroke-width="2"/></g><g><title>hidden-block</title><circle cx="1286" cy="128" r="5" fill="none" stroke="#ef8290" stroke-width="2"/></g><g><title>enemy-beetle</title><circle cx="1302" cy="191" r="5" fill="none" stroke="#ef8290" stroke-width="2"/></g><g><title>enemy-piranha</title><circle cx="1318" cy="160" r="5" fill="none" stroke="#ef8290" stroke-width="2"/></g><g><title>enemy-piranha</title><circle cx="1510" cy="144" r="5" fill="none" stroke="#ef8290" stroke-width="2"/></g><g><title>source-transport-not-simulated</title><circle cx="1670" cy="144" r="5" fill="none" stroke="#ef8290" stroke-width="2"/></g><g><title>enemy-piranha</title><circle cx="1670" cy="144" r="5" fill="none" stroke="#ef8290" stroke-width="2"/></g><g><title>enemy-goomba</title><circle cx="1734" cy="192" r="5" fill="none" stroke="#ef8290" stroke-width="2"/></g><g><title>enemy-goomba</title><circle cx="1758" cy="192" r="5" fill="none" stroke="#ef8290" stroke-width="2"/></g><g><title>enemy-goomba</title><circle cx="1782" cy="192" r="5" fill="none" stroke="#ef8290" stroke-width="2"/></g><g><title>enemy-piranha</title><circle cx="1846" cy="176" r="5" fill="none" stroke="#ef8290" stroke-width="2"/></g><g><title>enemy-koopa</title><circle cx="1910" cy="184" r="5" fill="none" stroke="#ef8290" stroke-width="2"/></g><g><title>enemy-koopa</title><circle cx="1990" cy="184" r="5" fill="none" stroke="#ef8290" stroke-width="2"/></g><g><title>enemy-koopa</title><circle cx="2014" cy="184" r="5" fill="none" stroke="#ef8290" stroke-width="2"/></g><g><title>enemy-koopa</title><circle cx="2038" cy="184" r="5" fill="none" stroke="#ef8290" stroke-width="2"/></g><g><title>enemy-koopa</title><circle cx="2086" cy="184" r="5" fill="none" stroke="#ef8290" stroke-width="2"/></g><g><title>enemy-koopa</title><circle cx="2110" cy="184" r="5" fill="none" stroke="#ef8290" stroke-width="2"/></g><g><title>enemy-koopa</title><circle cx="2134" cy="184" r="5" fill="none" stroke="#ef8290" stroke-width="2"/></g><g><title>enemy-piranha</title><circle cx="2246" cy="160" r="5" fill="none" stroke="#ef8290" stroke-width="2"/></g><g><title>enemy-goomba</title><circle cx="2374" cy="192" r="5" fill="none" stroke="#ef8290" stroke-width="2"/></g><g><title>enemy-goomba</title><circle cx="2398" cy="192" r="5" fill="none" stroke="#ef8290" stroke-width="2"/></g><g><title>enemy-goomba</title><circle cx="2422" cy="192" r="5" fill="none" stroke="#ef8290" stroke-width="2"/></g><g><title>hidden-block</title><circle cx="2534" cy="144" r="5" fill="none" stroke="#ef8290" stroke-width="2"/></g><g><title>block-contents</title><circle cx="2534" cy="80" r="5" fill="none" stroke="#ef8290" stroke-width="2"/></g><g><title>enemy-koopa</title><circle cx="2582" cy="144" r="5" fill="none" stroke="#ef8290" stroke-width="2"/></g><g><title>enemy-koopa</title><circle cx="2758" cy="144" r="5" fill="none" stroke="#ef8290" stroke-width="2"/></g><g><title>enemy-koopa</title><circle cx="2838" cy="152" r="5" fill="none" stroke="#ef8290" stroke-width="2"/></g><g><title>block-contents</title><circle cx="2982" cy="128" r="5" fill="none" stroke="#ef8290" stroke-width="2"/></g><g><title>enemy-koopa</title><circle cx="3318" cy="184" r="5" fill="none" stroke="#ef8290" stroke-width="2"/></g><g><title>enemy-koopa</title><circle cx="3342" cy="184" r="5" fill="none" stroke="#ef8290" stroke-width="2"/></g><g><title>enemy-goomba</title><circle cx="3718" cy="192" r="5" fill="none" stroke="#ef8290" stroke-width="2"/></g><g><title>enemy-goomba</title><circle cx="3742" cy="192" r="5" fill="none" stroke="#ef8290" stroke-width="2"/></g><g><title>enemy-goomba</title><circle cx="3766" cy="192" r="5" fill="none" stroke="#ef8290" stroke-width="2"/></g><g><title>enemy-piranha</title><circle cx="3814" cy="160" r="5" fill="none" stroke="#ef8290" stroke-width="2"/></g><g><title>enemy-beetle</title><circle cx="4070" cy="191" r="5" fill="none" stroke="#ef8290" stroke-width="2"/></g><g><title>enemy-goomba</title><circle cx="4118" cy="192" r="5" fill="none" stroke="#ef8290" stroke-width="2"/></g><g><title>enemy-goomba</title><circle cx="4142" cy="192" r="5" fill="none" stroke="#ef8290" stroke-width="2"/></g><g><title>enemy-goomba</title><circle cx="4166" cy="192" r="5" fill="none" stroke="#ef8290" stroke-width="2"/></g><g><title>enemy-goomba</title><circle cx="4230" cy="192" r="5" fill="none" stroke="#ef8290" stroke-width="2"/></g><g><title>enemy-goomba</title><circle cx="4254" cy="192" r="5" fill="none" stroke="#ef8290" stroke-width="2"/></g><g><title>enemy-goomba</title><circle cx="4278" cy="192" r="5" fill="none" stroke="#ef8290" stroke-width="2"/></g><g><title>enemy-goomba</title><circle cx="4358" cy="192" r="5" fill="none" stroke="#ef8290" stroke-width="2"/></g><g><title>enemy-goomba</title><circle cx="4382" cy="192" r="5" fill="none" stroke="#ef8290" stroke-width="2"/></g><g><title>enemy-beetle</title><circle cx="4534" cy="191" r="5" fill="none" stroke="#ef8290" stroke-width="2"/></g><g><title>enemy-koopa</title><circle cx="4886" cy="184" r="5" fill="none" stroke="#ef8290" stroke-width="2"/></g><g><title>enemy-koopa</title><circle cx="5318" cy="184" r="5" fill="none" stroke="#ef8290" stroke-width="2"/></g><g><title>enemy-koopa</title><circle cx="5430" cy="184" r="5" fill="none" stroke="#ef8290" stroke-width="2"/></g><g><title>enemy-koopa</title><circle cx="5454" cy="184" r="5" fill="none" stroke="#ef8290" stroke-width="2"/></g><g><title>enemy-koopa</title><circle cx="5478" cy="184" r="5" fill="none" stroke="#ef8290" stroke-width="2"/></g><g><title>enemy-piranha</title><circle cx="5510" cy="160" r="5" fill="none" stroke="#ef8290" stroke-width="2"/></g><g><title>enemy-piranha</title><circle cx="5686" cy="176" r="5" fill="none" stroke="#ef8290" stroke-width="2"/></g><g><title>flagpole-finish</title><circle cx="6022" cy="208" r="5" fill="none" stroke="#ef8290" stroke-width="2"/></g><g><title>source-transport-not-simulated</title><circle cx="6022" cy="208" r="5" fill="none" stroke="#ef8290" stroke-width="2"/></g></svg>
