<svg xmlns="http://www.w3.org/2000/svg" viewBox="0 0 3072 240" width="3072" height="240" role="img" aria-labelledby="title"><title id="title">6-3 · 区域 1：基础地形预览，粉色圆点表示待实现机制</title><rect width="3072" height="240" fill="#16161c"/><path d="M0 0v240" stroke="#777" stroke-opacity=".22"/><text x="4" y="14" fill="#9a9394" font-size="10">0</text><path d="M256 0v240" stroke="#777" stroke-opacity=".22"/><text x="260" y="14" fill="#9a9394" font-size="10">16</text><path d="M512 0v240" stroke="#777" stroke-opacity=".22"/><text x="516" y="14" fill="#9a9394" font-size="10">32</text><path d="M768 0v240" stroke="#777" stroke-opacity=".22"/><text x="772" y="14" fill="#9a9394" font-size="10">48</text><path d="M1024 0v240" stroke="#777" stroke-opacity=".22"/><text x="1028" y="14" fill="#9a9394" font-size="10">64</text><path d="M1280 0v240" stroke="#777" stroke-opacity=".22"/><text x="1284" y="14" fill="#9a9394" font-size="10">80</text><path d="M1536 0v240" stroke="#777" stroke-opacity=".22"/><text x="1540" y="14" fill="#9a9394" font-size="10">96</text><path d="M1792 0v240" stroke="#777" stroke-opacity=".22"/><text x="1796" y="14" fill="#9a9394" font-size="10">112</text><path d="M2048 0v240" stroke="#777" stroke-opacity=".22"/><text x="2052" y="14" fill="#9a9394" font-size="10">128</text><path d="M2304 0v240" stroke="#777" stroke-opacity=".22"/><text x="2308" y="14" fill="#9a9394" font-size="10">144</text><path d="M2560 0v240" stroke="#777" stroke-opacity=".22"/><text x="2564" y="14" fill="#9a9394" font-size="10">160</text><path d="M2816 0v240" stroke="#777" stroke-opacity=".22"/><text x="2820" y="14" fill="#9a9394" font-size="10">176</text><rect x="0" y="208" width="256" height="32" fill="#e8e0cb" stroke="#393840"/><rect x="288" y="208" width="48" height="16" fill="#e8e0cb" stroke="#393840"/><rect x="336" y="144" width="48" height="16" fill="#e8e0cb" stroke="#393840"/><rect x="384" y="208" width="48" height="16" fill="#e8e0cb" stroke="#393840"/><rect x="448" y="208" width="32" height="8" fill="#dbad55" stroke="#393840"/><rect x="496" y="144" width="64" height="16" fill="#e8e0cb" stroke="#393840"/><rect x="592" y="208" width="48" height="16" fill="#e8e0cb" stroke="#393840"/><rect x="608" y="179" width="16" height="29" fill="#e8e0cb" stroke="#393840"/><rect x="688" y="208" width="48" height="16" fill="#e8e0cb" stroke="#393840"/><rect x="696" y="80" width="32" height="8" fill="#dbad55" stroke="#393840"/><rect x="776" y="114" width="32" height="8" fill="#dbad55" stroke="#393840"/><rect x="784" y="176" width="64" height="16" fill="#e8e0cb" stroke="#393840"/><rect x="880" y="48" width="16" height="16" fill="#e8e0cb" stroke="#393840"/><rect x="888" y="96" width="32" height="8" fill="#dbad55" stroke="#393840"/><rect x="960" y="194" width="32" height="8" fill="#dbad55" stroke="#393840"/><rect x="1040" y="144" width="80" height="16" fill="#e8e0cb" stroke="#393840"/><rect x="1128" y="84" width="32" height="8" fill="#769d94" stroke="#393840"/><rect x="1192" y="148" width="32" height="8" fill="#769d94" stroke="#393840"/><rect x="1256" y="84" width="32" height="8" fill="#769d94" stroke="#393840"/><rect x="1304" y="148" width="32" height="8" fill="#769d94" stroke="#393840"/><rect x="1360" y="160" width="80" height="16" fill="#e8e0cb" stroke="#393840"/><rect x="1360" y="48" width="48" height="16" fill="#e8e0cb" stroke="#393840"/><rect x="1440" y="128" width="48" height="16" fill="#e8e0cb" stroke="#393840"/><rect x="1488" y="208" width="48" height="16" fill="#e8e0cb" stroke="#393840"/><rect x="1552" y="208" width="64" height="16" fill="#e8e0cb" stroke="#393840"/><rect x="1648" y="208" width="48" height="16" fill="#e8e0cb" stroke="#393840"/><rect x="1712" y="144" width="80" height="16" fill="#e8e0cb" stroke="#393840"/><rect x="1808" y="208" width="80" height="16" fill="#e8e0cb" stroke="#393840"/><rect x="1856" y="179" width="16" height="29" fill="#e8e0cb" stroke="#393840"/><rect x="1944" y="82" width="32" height="8" fill="#dbad55" stroke="#393840"/><rect x="1968" y="208" width="48" height="16" fill="#e8e0cb" stroke="#393840"/><rect x="2024" y="100" width="32" height="8" fill="#769d94" stroke="#393840"/><rect x="2072" y="148" width="32" height="8" fill="#769d94" stroke="#393840"/><rect x="2112" y="208" width="64" height="16" fill="#e8e0cb" stroke="#393840"/><rect x="2112" y="80" width="48" height="16" fill="#e8e0cb" stroke="#393840"/><rect x="2160" y="144" width="64" height="16" fill="#e8e0cb" stroke="#393840"/><rect x="2256" y="114" width="32" height="8" fill="#769d94" stroke="#393840"/><rect x="2320" y="98" width="32" height="8" fill="#769d94" stroke="#393840"/><rect x="2384" y="106" width="32" height="8" fill="#769d94" stroke="#393840"/><rect x="2448" y="90" width="32" height="8" fill="#769d94" stroke="#393840"/><rect x="2492" y="64" width="48" height="16" fill="#e8e0cb" stroke="#393840"/><rect x="2560" y="208" width="512" height="32" fill="#e8e0cb" stroke="#393840"/><rect x="2672" y="192" width="16" height="16" fill="#e8e0cb" stroke="#393840"/><circle cx="457" cy="41" r="4" fill="#f5cc62"/><circle cx="473" cy="41" r="4" fill="#f5cc62"/><circle cx="695" cy="73" r="4" fill="#f5cc62"/><circle cx="711" cy="73" r="4" fill="#f5cc62"/><circle cx="727" cy="73" r="4" fill="#f5cc62"/><circle cx="743" cy="73" r="4" fill="#f5cc62"/><circle cx="759" cy="73" r="4" fill="#f5cc62"/><circle cx="775" cy="73" r="4" fill="#f5cc62"/><circle cx="791" cy="73" r="4" fill="#f5cc62"/><circle cx="1175" cy="89" r="4" fill="#f5cc62"/><circle cx="1191" cy="89" r="4" fill="#f5cc62"/><circle cx="1367" cy="41" r="4" fill="#f5cc62"/><circle cx="1383" cy="41" r="4" fill="#f5cc62"/><circle cx="1399" cy="41" r="4" fill="#f5cc62"/><circle cx="1607" cy="137" r="4" fill="#f5cc62"/><circle cx="1623" cy="137" r="4" fill="#f5cc62"/><circle cx="1639" cy="137" r="4" fill="#f5cc62"/><circle cx="1655" cy="137" r="4" fill="#f5cc62"/><circle cx="2055" cy="89" r="4" fill="#f5cc62"/><circle cx="2071" cy="89" r="4" fill="#f5cc62"/><circle cx="2327" cy="121" r="4" fill="#f5cc62"/><circle cx="2343" cy="121" r="4" fill="#f5cc62"/><circle cx="2471" cy="41" r="4" fill="#f5cc62"/><circle cx="2487" cy="41" r="4" fill="#f5cc62"/><rect x="24" y="184" width="12" height="24" fill="#64ccba" stroke="none"/><g><title>spawn-zone-BulletBillsStart</title><circle cx="262" cy="208" r="5" fill="none" stroke="#ef8290" stroke-width="2"/></g><g><title>platform-timing</title><circle cx="454" cy="208" r="5" fill="none" stroke="#ef8290" stroke-width="2"/></g><g><title>springboard</title><circle cx="614" cy="179" r="5" fill="none" stroke="#ef8290" stroke-width="2"/></g><g><title>platform-timing</title><circle cx="702" cy="80" r="5" fill="none" stroke="#ef8290" stroke-width="2"/></g><g><title>platform-timing</title><circle cx="782" cy="114" r="5" fill="none" stroke="#ef8290" stroke-width="2"/></g><g><title>block-contents</title><circle cx="886" cy="48" r="5" fill="none" stroke="#ef8290" stroke-width="2"/></g><g><title>platform-timing</title><circle cx="894" cy="96" r="5" fill="none" stroke="#ef8290" stroke-width="2"/></g><g><title>platform-timing</title><circle cx="966" cy="194" r="5" fill="none" stroke="#ef8290" stroke-width="2"/></g><g><title>coupled-scale</title><circle cx="1150" cy="36" r="5" fill="none" stroke="#ef8290" stroke-width="2"/></g><g><title>coupled-scale</title><circle cx="1278" cy="36" r="5" fill="none" stroke="#ef8290" stroke-width="2"/></g><g><title>springboard</title><circle cx="1862" cy="179" r="5" fill="none" stroke="#ef8290" stroke-width="2"/></g><g><title>platform-timing</title><circle cx="1950" cy="82" r="5" fill="none" stroke="#ef8290" stroke-width="2"/></g><g><title>coupled-scale</title><circle cx="2046" cy="36" r="5" fill="none" stroke="#ef8290" stroke-width="2"/></g><g><title>falling-platform</title><circle cx="2262" cy="114" r="5" fill="none" stroke="#ef8290" stroke-width="2"/></g><g><title>falling-platform</title><circle cx="2326" cy="98" r="5" fill="none" stroke="#ef8290" stroke-width="2"/></g><g><title>falling-platform</title><circle cx="2390" cy="106" r="5" fill="none" stroke="#ef8290" stroke-width="2"/></g><g><title>falling-platform</title><circle cx="2454" cy="90" r="5" fill="none" stroke="#ef8290" stroke-width="2"/></g><g><title>spawn-zone-BulletBillsStop</title><circle cx="2566" cy="208" r="5" fill="none" stroke="#ef8290" stroke-width="2"/></g><g><title>flagpole-finish</title><circle cx="2678" cy="208" r="5" fill="none" stroke="#ef8290" stroke-width="2"/></g><g><title>source-transport-not-simulated</title><circle cx="2678" cy="208" r="5" fill="none" stroke="#ef8290" stroke-width="2"/></g></svg>
